<svg width="32" height="32" fill="none" xmlns="http://www.w3.org/2000/svg"><rect width="32" height="32" rx="10" fill="url(#a)"/><path d="M16 8.13c2.563 0 2.867.01 3.88.056.935.043 1.444.199 1.782.33.448.175.768.383 1.104.719.336.336.544.655.718 1.104.131.338.288.846.33 1.782.047 1.012.056 1.316.056 3.88 0 2.563-.01 2.866-.056 3.878-.042.936-.199 1.445-.33 1.783a2.975 2.975 0 0 1-.718 1.104 2.975 2.975 0 0 1-1.104.718c-.338.131-.847.288-1.783.33-1.012.047-1.315.056-3.879.056-2.563 0-2.867-.01-3.88-.056-.935-.042-1.443-.199-1.782-.33a2.974 2.974 0 0 1-1.103-.718 2.974 2.974 0 0 1-.719-1.104c-.131-.338-.287-.847-.33-1.783C8.14 18.867 8.13 18.563 8.13 16c0-2.563.01-2.867.056-3.879.043-.936.199-1.444.33-1.783.175-.448.383-.767.719-1.103a2.974 2.974 0 0 1 1.103-.718c.339-.132.847-.288 1.783-.331 1.012-.046 1.316-.056 3.88-.056zm0-1.73c-2.607 0-2.934.011-3.958.058-1.022.047-1.72.209-2.33.446a4.706 4.706 0 0 0-1.7 1.108 4.706 4.706 0 0 0-1.108 1.7c-.237.61-.4 1.308-.446 2.33C6.41 13.066 6.4 13.393 6.4 16s.011 2.934.058 3.958c.047 1.022.209 1.72.446 2.33a4.706 4.706 0 0 0 1.107 1.701c.534.534 1.07.862 1.7 1.107.611.238 1.31.4 2.331.446 1.024.047 1.35.058 3.958.058 2.607 0 2.934-.01 3.958-.058 1.022-.046 1.72-.209 2.33-.446a4.706 4.706 0 0 0 1.7-1.107 4.707 4.707 0 0 0 1.108-1.7c.238-.611.4-1.309.446-2.33.047-1.025.058-1.352.058-3.959s-.01-2.934-.058-3.958c-.046-1.022-.209-1.72-.446-2.33a4.707 4.707 0 0 0-1.107-1.7 4.706 4.706 0 0 0-1.7-1.108c-.611-.237-1.309-.4-2.33-.446C18.933 6.411 18.606 6.4 16 6.4z" fill="#fff"/><path d="M16.005 11.074a4.93 4.93 0 1 0 0 9.86 4.93 4.93 0 0 0 0-9.86zm0 8.13a3.2 3.2 0 1 1 0-6.4 3.2 3.2 0 0 1 0 6.4zM22.28 10.877a1.152 1.152 0 1 1-2.303 0 1.152 1.152 0 0 1 2.304 0z" fill="#fff"/><defs><linearGradient id="a" x1="15.659" y1="0" x2="15.659" y2="32" gradientUnits="userSpaceOnUse"><stop stop-color="#4565C9"/><stop offset=".37" stop-color="#A83AA8"/><stop offset=".677" stop-color="#F8504C"/><stop offset="1" stop-color="#FFBE50"/></linearGradient></defs></svg>