<svg width="40" height="40" fill="none" xmlns="http://www.w3.org/2000/svg"><rect x=".833" y=".852" width="38.889" height="38.889" rx="10" fill="#000"/><path d="M17.176 17.425V16.28a7.739 7.739 0 0 0-1.112-.085c-4.538-.007-8.23 3.987-8.23 8.903 0 3.014 1.39 5.681 3.516 7.296-1.371-1.589-2.211-3.726-2.211-6.067 0-4.844 3.59-8.792 8.037-8.903z" fill="#3EC1D3"/><path d="M17.374 30.392c2.024 0 3.68-1.745 3.753-3.916l.006-19.395h3.275a7.479 7.479 0 0 1-.103-1.23h-4.471l-.006 19.396c-.073 2.17-1.729 3.916-3.753 3.916-.628 0-1.22-.17-1.746-.47.676 1.026 1.788 1.7 3.045 1.7zM30.53 13.665v-1.078a5.83 5.83 0 0 1-3.39-1.092c.87 1.079 2.048 1.863 3.39 2.17z" fill="#3AB5C6"/><path d="M27.141 11.492c-.954-1.183-1.529-2.726-1.529-4.412h-1.196c.308 1.843 1.323 3.425 2.725 4.412zM16.069 21.025c-2.073 0-3.759 1.824-3.759 4.066 0 1.563.822 2.922 2.018 3.602a4.248 4.248 0 0 1-.713-2.373c0-2.242 1.686-4.066 3.759-4.066.387 0 .761.072 1.112.19v-4.942a7.739 7.739 0 0 0-1.112-.085c-.067 0-.127.006-.194.006v3.792a3.524 3.524 0 0 0-1.111-.19z" fill="#FF165D"/><path d="M30.528 13.663v3.759c-2.32 0-4.472-.805-6.224-2.164v9.838c0 4.91-3.692 8.91-8.236 8.91-1.753 0-3.384-.601-4.72-1.614 1.505 1.745 3.65 2.843 6.025 2.843 4.538 0 8.236-3.994 8.236-8.91v-9.838c1.752 1.36 3.904 2.164 6.224 2.164v-4.838a5.68 5.68 0 0 1-1.305-.15z" fill="#FF165D"/><path d="M24.306 25.096v-9.838c1.752 1.36 3.904 2.163 6.224 2.163v-3.758c-1.341-.308-2.52-1.092-3.39-2.17-1.402-.988-2.411-2.57-2.731-4.413h-3.275l-.006 19.395c-.073 2.17-1.729 3.916-3.753 3.916-1.257 0-2.363-.673-3.052-1.693-1.196-.686-2.018-2.04-2.018-3.602 0-2.242 1.686-4.066 3.759-4.066.386 0 .761.072 1.111.19v-3.792c-4.447.104-8.036 4.053-8.036 8.897 0 2.34.84 4.472 2.211 6.067 1.336 1.013 2.967 1.614 4.72 1.614 4.538 0 8.236-4 8.236-8.91z" fill="#fff"/></svg>