<svg width="32" height="32" fill="none" xmlns="http://www.w3.org/2000/svg"><rect width="32" height="32" rx="10" fill="#85D8F8"/><path fill-rule="evenodd" clip-rule="evenodd" d="M25.6 9.847a7.863 7.863 0 0 1-2.263.62 3.95 3.95 0 0 0 1.732-2.179 7.889 7.889 0 0 1-2.5.956 3.94 3.94 0 0 0-6.712 3.593 11.181 11.181 0 0 1-8.12-4.116 3.918 3.918 0 0 0-.533 1.98c0 1.367.695 2.572 1.752 3.279a3.927 3.927 0 0 1-1.784-.493v.05c0 1.908 1.358 3.5 3.159 3.863a3.958 3.958 0 0 1-1.779.067 3.944 3.944 0 0 0 3.68 2.736 7.905 7.905 0 0 1-5.832 1.63 11.15 11.15 0 0 0 6.038 1.77c7.245 0 11.207-6.002 11.207-11.207 0-.17-.003-.34-.012-.509a8.024 8.024 0 0 0 1.967-2.04z" fill="#fff"/></svg>