<svg width="32" height="32" fill="none" xmlns="http://www.w3.org/2000/svg"><rect width="32" height="32" rx="10" fill="red"/><path fill-rule="evenodd" clip-rule="evenodd" d="M25.382 9.903c.319.32.549.717.667 1.152.68 2.734.522 7.052.013 9.89a2.586 2.586 0 0 1-1.82 1.82c-1.595.436-8.017.436-8.017.436s-6.422 0-8.018-.436a2.584 2.584 0 0 1-1.82-1.82c-.683-2.721-.495-7.041-.013-9.876a2.585 2.585 0 0 1 1.82-1.82c1.596-.435 8.018-.448 8.018-.448s6.422 0 8.017.435c.436.118.833.348 1.153.667zm-5.887 6.098-5.327 3.085v-6.171L19.495 16z" fill="#fff"/></svg>